<svg width="22" height="23" viewBox="0 0 22 23" fill="none" xmlns="http://www.w3.org/2000/svg">
<path d="M5.36503 21.6186C5.36503 22.1497 4.72294 22.4157 4.34742 22.0401L1.0177 18.7104C0.784908 18.4776 0.784908 18.1002 1.0177 17.8674L4.34742 14.5377C4.72294 14.1622 5.36503 14.4281 5.36503 14.9592V16.5006C5.36503 16.8298 5.63191 17.0967 5.96113 17.0967H16.691C17.0202 17.0967 17.2871 16.8298 17.2871 16.5006V12.924C17.2871 12.5948 17.554 12.3279 17.8832 12.3279H19.0754C19.4047 12.3279 19.6715 12.5948 19.6715 12.924V18.2889C19.6715 18.9474 19.1378 19.4811 18.4793 19.4811H5.96113C5.63191 19.4811 5.36503 19.748 5.36503 20.0772V21.6186ZM5.36503 9.34734C5.36503 9.67656 5.09814 9.94345 4.76893 9.94345H3.57671C3.2475 9.94345 2.98061 9.67656 2.98061 9.34734V3.9824C2.98061 3.32396 3.51438 2.79019 4.17282 2.79019H16.691C17.0202 2.79019 17.2871 2.52331 17.2871 2.19409V0.652686C17.2871 0.121613 17.9292 -0.144348 18.3047 0.231177L21.6345 3.56089C21.8672 3.79368 21.8672 4.17112 21.6345 4.40391L18.3047 7.73362C17.9292 8.10915 17.2871 7.84319 17.2871 7.31211V5.77071C17.2871 5.4415 17.0202 5.17461 16.691 5.17461H5.96113C5.63192 5.17461 5.36503 5.4415 5.36503 5.77071V9.34734Z" fill="white"/>
</svg>
