<svg width="26" height="27" viewBox="0 0 26 27" fill="none" xmlns="http://www.w3.org/2000/svg">
<path d="M12.7942 26.1779C5.77088 26.1779 0.0773315 20.4843 0.0773315 13.461C0.0773315 6.43763 5.77088 0.74408 12.7942 0.74408C19.8176 0.74408 25.5111 6.43763 25.5111 13.461C25.5034 20.4811 19.8144 26.1702 12.7942 26.1779ZM2.62071 13.6797C2.68088 19.2767 7.25107 23.7738 12.8483 23.7439C18.4456 23.7136 22.9672 19.1677 22.9672 13.5703C22.9672 7.97301 18.4456 3.42706 12.8483 3.39682C7.25107 3.36689 2.68088 7.86397 2.62071 13.461V13.6797ZM14.0659 19.8194H11.5225V14.7327H6.43578V12.1893H11.5225V7.10253H14.0659V12.1893H19.1527V14.7327H14.0659V19.8194Z" fill="#FAFAFA"/>
</svg>
