<svg width="26" height="24" viewBox="0 0 26 24" fill="none" xmlns="http://www.w3.org/2000/svg">
<path d="M12.7646 23.6698C11.9444 22.9424 11.0173 22.1857 10.0369 21.3808H10.0242C6.57152 18.5576 2.65852 15.3631 0.930296 11.5353C0.362509 10.3167 0.0616097 8.99085 0.0477287 7.64651C0.0439368 5.80191 0.783761 4.03362 2.10001 2.74131C3.41625 1.44899 5.19782 0.741735 7.04204 0.779384C8.54343 0.781755 10.0125 1.21568 11.2742 2.02946C11.8286 2.3893 12.3303 2.82459 12.7646 3.32276C13.2015 2.82654 13.7032 2.39152 14.2563 2.02946C15.5175 1.21552 16.9862 0.781569 18.4873 0.779384C20.3315 0.741735 22.113 1.44899 23.4293 2.74131C24.7455 4.03362 25.4854 5.80191 25.4816 7.64651C25.4686 8.993 25.1677 10.3211 24.599 11.5417C22.8708 15.3695 18.9591 18.5627 15.5064 21.3808L15.4937 21.3909C14.5119 22.1908 13.5862 22.9475 12.7659 23.68L12.7646 23.6698ZM7.04204 3.32276C5.85747 3.30794 4.71494 3.7613 3.86281 4.58428C3.04179 5.39074 2.58293 6.49569 2.59102 7.64651C2.60553 8.62635 2.82744 9.59201 3.24223 10.4798C4.05803 12.1314 5.15881 13.6261 6.49394 14.8951C7.75419 16.1668 9.20391 17.3978 10.4578 18.433C10.805 18.7191 11.1585 19.0078 11.512 19.2965L11.7346 19.4783C12.0741 19.7555 12.4251 20.0429 12.7646 20.3253L12.7812 20.31L12.7888 20.3036H12.7964L12.8079 20.2947H12.8142H12.8206L12.8435 20.2757L12.8956 20.2337L12.9045 20.2261L12.9185 20.2159H12.9262L12.9376 20.2057L13.782 19.5127L14.0033 19.3308C14.3606 19.0396 14.7141 18.7509 15.0613 18.4648C16.3152 17.4296 17.7662 16.1999 19.0265 14.9219C20.3618 13.6534 21.4626 12.1591 22.2782 10.5078C22.7005 9.61229 22.9255 8.63653 22.9382 7.64651C22.9435 6.49924 22.4848 5.39854 21.6665 4.59446C20.816 3.76775 19.6733 3.31066 18.4873 3.32276C17.04 3.31047 15.6564 3.91711 14.6849 4.98995L12.7646 7.20269L10.8444 4.98995C9.8729 3.91711 8.48932 3.31047 7.04204 3.32276Z" fill="#7A8580"/>
</svg>
