<svg width="21" height="6" viewBox="0 0 21 6" fill="none" xmlns="http://www.w3.org/2000/svg">
<path d="M18.1225 5.76797C16.7178 5.76797 15.5791 4.62926 15.5791 3.22459C15.5791 1.81992 16.7178 0.681213 18.1225 0.681213C19.5272 0.681213 20.6659 1.81992 20.6659 3.22459C20.6659 3.89914 20.3979 4.54606 19.9209 5.02304C19.444 5.50001 18.797 5.76797 18.1225 5.76797ZM10.4924 5.76797C9.08768 5.76797 7.94897 4.62926 7.94897 3.22459C7.94897 1.81992 9.08768 0.681213 10.4924 0.681213C11.897 0.681213 13.0357 1.81992 13.0357 3.22459C13.0357 3.89914 12.7678 4.54606 12.2908 5.02304C11.8138 5.50001 11.1669 5.76797 10.4924 5.76797ZM2.86221 5.76797C1.45754 5.76797 0.318832 4.62926 0.318832 3.22459C0.318832 1.81992 1.45754 0.681213 2.86221 0.681213C4.26688 0.681213 5.40559 1.81992 5.40559 3.22459C5.40559 3.89914 5.13763 4.54606 4.66065 5.02304C4.18368 5.50001 3.53676 5.76797 2.86221 5.76797Z" fill="#7A8580"/>
</svg>
