<svg width="18" height="18" viewBox="0 0 18 18" fill="none" xmlns="http://www.w3.org/2000/svg">
<path d="M2.76112 8.71137L2.76369 8.72354C3.1283 10.4546 4.29492 11.9407 5.94597 12.6912L9.31923 14.2245V12.4181H11.2268C13.8605 12.4181 15.9956 10.283 15.9956 7.64925V6.69548C15.9956 4.06172 13.8605 1.92664 11.2268 1.92664H7.41169C4.77794 1.92664 2.64286 4.06172 2.64286 6.69548V7.64925C2.64286 8.01203 2.68302 8.36315 2.7584 8.69924L2.76112 8.71137ZM11.2268 17.1869L5.15663 14.4278C2.94603 13.4229 1.38509 11.4335 0.897107 9.1167C0.791202 8.6445 0.735321 8.1534 0.735321 7.64925V6.69548C0.735321 3.00822 3.72444 0.019104 7.41169 0.019104H11.2268C14.914 0.019104 17.9031 3.00822 17.9031 6.69548V7.64925C17.9031 11.3365 14.914 14.3256 11.2268 14.3256V17.1869Z" fill="white"/>
</svg>
