<svg width="20" height="20" viewBox="0 0 20 20" fill="none" xmlns="http://www.w3.org/2000/svg">
<path d="M19.6479 19.0772C19.6479 19.4064 19.381 19.6733 19.0518 19.6733H14.5293C13.9983 19.6733 13.7323 19.0314 14.1077 18.6558L15.1123 17.6507C15.345 17.4179 15.345 17.0406 15.1123 16.8079L12.2245 13.9192C11.9918 13.6864 11.9918 13.309 12.2246 13.0762L13.0627 12.2381C13.2955 12.0053 13.6728 12.0053 13.9056 12.238L16.7943 15.1258C17.0271 15.3585 17.4044 15.3585 17.6372 15.1258L18.6304 14.1332C19.0059 13.7578 19.6479 14.0238 19.6479 14.5548V19.0772ZM2.25412 19.6733C2.25374 19.6733 2.25337 19.6732 2.2531 19.6729L0.993852 18.4136C0.761124 18.1809 0.761049 17.8036 0.993684 17.5708L15.1016 3.45158C15.3343 3.21876 15.3342 2.84146 15.1015 2.60873L14.1083 1.61558C13.7328 1.24005 13.9988 0.597961 14.5298 0.597961H19.0518C19.381 0.597961 19.6479 0.864847 19.6479 1.19407V5.71599C19.6479 6.24706 19.0058 6.51302 18.6302 6.1375L17.6371 5.14437C17.4044 4.91163 17.0271 4.91156 16.7942 5.14421L2.25514 19.6729C2.25487 19.6732 2.2545 19.6733 2.25412 19.6733V19.6733ZM7.15774 8.02416C6.92471 8.25555 6.54842 8.25489 6.31621 8.02268L0.994019 2.70049C0.761226 2.46769 0.761226 2.09026 0.99402 1.85747L1.83242 1.01906C2.06506 0.78643 2.44218 0.786248 2.67503 1.01866L8.00535 6.33868C8.23911 6.57199 8.23863 6.95089 8.00427 7.1836L7.15774 8.02416Z" fill="white"/>
</svg>
